<svg width="5" height="9" viewBox="0 0 5 9" fill="none" xmlns="http://www.w3.org/2000/svg">
<path d="M4.99831 4.50706C4.99864 4.657 4.94054 4.80231 4.83411 4.91777L1.26453 8.76817C1.14335 8.89922 0.969215 8.98164 0.780437 8.99728C0.591658 9.01293 0.403698 8.96052 0.257904 8.8516C0.11211 8.74267 0.020426 8.58614 0.00302093 8.41645C-0.0143842 8.24676 0.0439153 8.07781 0.165094 7.94675L3.36344 4.50706L0.279321 1.06736C0.220019 1.00172 0.175734 0.926193 0.149011 0.845116C0.122287 0.76404 0.113653 0.679017 0.123605 0.594931C0.133556 0.510846 0.161897 0.429357 0.206997 0.355149C0.252098 0.280941 0.31307 0.215477 0.386409 0.162519C0.459815 0.103749 0.545932 0.0592389 0.639365 0.0317774C0.732798 0.00431592 0.831533 -0.00550441 0.929385 0.00292993C1.02724 0.0113643 1.1221 0.0378717 1.20802 0.0807929C1.29395 0.123714 1.36908 0.182124 1.42873 0.252362L4.87695 4.10277C4.96655 4.22154 5.00928 4.36389 4.99831 4.50706V4.50706Z" fill="#2C2C2C"/>
</svg>
